<svg width="73" height="82" viewBox="0 0 73 82" fill="none" xmlns="http://www.w3.org/2000/svg">
<g id="icon">
<rect id="Rectangle 37" x="0.5" y="1.03125" width="72" height="79.7495" stroke="black"/>
<g id="Vector">
<path d="M53.6185 39.1313L48.8087 31.7037C48.4359 31.128 47.8038 30.7843 47.118 30.7843H25.8965C25.2116 30.7843 24.5802 31.1271 24.2072 31.7014L19.3824 39.1299C18.8894 39.8889 18.9656 40.891 19.5677 41.5668L34.9948 58.8865C35.3766 59.3151 35.9248 59.5611 36.4988 59.5611C36.4987 59.5611 36.4989 59.5611 36.4988 59.5611C37.0728 59.5611 37.6212 59.3152 38.003 58.8866L53.4318 41.5659C54.0331 40.8909 54.1099 39.8898 53.6185 39.1313ZM46.1436 32.5111L42.0986 38.7662L38.0511 32.5111H46.1436ZM40.5116 39.4925H32.486L36.4988 33.2911L40.5116 39.4925ZM34.9465 32.5113L30.9102 38.7492L26.8752 32.5113H34.9465ZM25.2786 33.2224L29.3343 39.4925H21.2061L25.2786 33.2224ZM21.5709 41.2195H30.2614L34.8565 56.1349L21.5709 41.2195ZM36.4988 55.6002L32.0684 41.2195H40.9292L36.4988 55.6002ZM38.1411 56.1354L42.7363 41.2196H51.4276L38.1411 56.1354ZM43.6856 39.4925L47.7376 33.2267L51.795 39.4925H43.6856Z" fill="#E30909"/>
<path d="M17.0137 39.4926H15.258C14.7812 39.4926 14.3945 39.8791 14.3945 40.356C14.3945 40.8329 14.7812 41.2195 15.258 41.2195H17.0137C17.4905 41.2195 17.8772 40.8329 17.8772 40.356C17.8772 39.8791 17.4905 39.4926 17.0137 39.4926Z" fill="#E30909"/>
<path d="M57.7413 39.4926H55.9856C55.5088 39.4926 55.1221 39.8791 55.1221 40.356C55.1221 40.8329 55.5088 41.2195 55.9856 41.2195H57.7413C58.2181 41.2195 58.6048 40.8329 58.6048 40.356C58.6048 39.8791 58.2181 39.4926 57.7413 39.4926Z" fill="#E30909"/>
<path d="M52.1413 24.73C51.804 24.3928 51.2574 24.3928 50.92 24.73L48.0518 27.5982C47.7146 27.9354 47.7146 28.4822 48.0518 28.8193C48.2205 28.988 48.4415 29.0723 48.6625 29.0723C48.8835 29.0723 49.1044 28.9879 49.273 28.8193L52.1413 25.9511C52.4785 25.6139 52.4785 25.0673 52.1413 24.73Z" fill="#E30909"/>
<path d="M24.9848 27.5827L22.1166 24.7144C21.7795 24.3772 21.233 24.3772 20.8954 24.7144C20.5582 25.0516 20.5582 25.5984 20.8954 25.9356L23.7637 28.8038C23.9323 28.9724 24.1533 29.0567 24.3742 29.0567C24.5952 29.0567 24.8162 28.9723 24.9848 28.8038C25.322 28.4667 25.322 27.9198 24.9848 27.5827Z" fill="#E30909"/>
<path d="M36.5216 18.251C36.0448 18.251 35.6581 18.6376 35.6581 19.1145V24.7416C35.6581 25.2185 36.0447 25.6051 36.5216 25.6051C36.9984 25.6051 37.3851 25.2185 37.3851 24.7416V19.1145C37.3851 18.6376 36.9984 18.251 36.5216 18.251Z" fill="#E30909"/>
<path d="M37.1316 27.0521C36.9711 26.8915 36.7483 26.7991 36.5212 26.7991C36.2941 26.7991 36.0714 26.8915 35.9108 27.0521C35.7501 27.2127 35.6578 27.4355 35.6578 27.6626C35.6578 27.8905 35.7501 28.1124 35.9108 28.273C36.0714 28.4345 36.2941 28.526 36.5212 28.526C36.7483 28.526 36.9711 28.4345 37.1316 28.273C37.2931 28.1124 37.3847 27.8897 37.3847 27.6626C37.3847 27.4355 37.2931 27.2128 37.1316 27.0521Z" fill="#E30909"/>
</g>
</g>
</svg>
